<svg version="1.2" xmlns="http://www.w3.org/2000/svg" viewBox="0 0 248 248" width="248" height="248">
	<title>272866-P5VRB1-557-ai</title>
	<style>
		tspan { white-space:pre } 
		.s0 { fill: #2a3961 } 
		.s1 { fill: #42517a } 
		.s2 { opacity: .3;mix-blend-mode: multiply;fill: #2a3961 } 
		.s3 { opacity: .3;mix-blend-mode: multiply;fill: #42517a } 
		.s4 { fill: #ffffff } 
		.t5 { font-size: 65px;fill: #2a3961;font-weight: 700;font-family: "Arvo-Bold", "Arvo" } 
	</style>
	<g id="objects">
		<g id="&lt;Group&gt;">
			<g id="&lt;Group&gt;">
				<path id="&lt;Path&gt;" class="s0" d="m243.8 131.4c-1.7 0-3.1 1.3-3.2 3q-0.5 4.8-1.3 9.5c-0.2 1.7 0.8 3.3 2.4 3.7 1.8 0.5 2.8 2.3 2.3 4l-2.2 8.3c-0.5 1.8-2.3 2.8-4 2.3-1.7-0.4-3.3 0.5-3.9 2.1q-1.7 4.5-3.7 8.8c-0.7 1.6-0.1 3.4 1.3 4.3 1.6 0.9 2.1 2.8 1.2 4.4l-4.3 7.4c-0.9 1.6-2.9 2.1-4.4 1.2-1.5-0.8-3.4-0.4-4.3 1q-2.8 3.9-5.9 7.6c-1.1 1.3-1 3.2 0.2 4.4 1.3 1.3 1.3 3.4 0 4.6l-6.1 6.1c-1.2 1.3-3.3 1.3-4.6 0-1.2-1.2-3.1-1.3-4.4-0.2q-3.7 3.1-7.6 5.8c-1.4 1-1.8 2.9-1 4.4 0.9 1.5 0.4 3.5-1.2 4.4l-7.4 4.3c-1.5 0.9-3.5 0.4-4.4-1.2-0.9-1.4-2.7-2-4.3-1.3q-4.3 2-8.8 3.7c-1.6 0.6-2.5 2.2-2.1 3.9 0.5 1.7-0.5 3.5-2.3 4l-8.3 2.2c-1.7 0.5-3.5-0.6-4-2.3-0.4-1.6-2-2.6-3.7-2.4q-4.7 0.8-9.5 1.3c-1.7 0.1-3 1.5-3 3.2 0 1.8-1.5 3.3-3.3 3.3h-8.5c-1.8 0-3.3-1.5-3.3-3.3 0-1.7-1.3-3.1-3-3.2q-4.8-0.5-9.5-1.3c-1.7-0.2-3.3 0.8-3.7 2.4-0.5 1.7-2.3 2.8-4 2.3l-8.3-2.2c-1.8-0.5-2.8-2.3-2.3-4 0.4-1.7-0.5-3.3-2.1-3.9q-4.5-1.7-8.8-3.7c-1.6-0.7-3.4-0.1-4.3 1.3-0.9 1.6-2.9 2.1-4.4 1.2l-7.4-4.3c-1.6-0.9-2.1-2.9-1.2-4.4 0.8-1.5 0.4-3.4-1-4.4q-3.9-2.7-7.6-5.8c-1.3-1.1-3.2-1-4.4 0.2-1.3 1.3-3.4 1.3-4.6 0l-6.1-6.1c-1.3-1.2-1.3-3.3 0-4.6 1.2-1.2 1.3-3.1 0.2-4.4q-3.1-3.7-5.9-7.6c-0.9-1.4-2.8-1.8-4.3-1-1.5 0.9-3.5 0.4-4.4-1.2l-4.3-7.4c-0.9-1.6-0.4-3.5 1.2-4.4 1.4-0.9 2-2.7 1.3-4.3q-2-4.3-3.7-8.8c-0.6-1.6-2.2-2.5-3.9-2.1-1.7 0.5-3.5-0.5-4-2.3l-2.2-8.3c-0.5-1.7 0.6-3.5 2.3-4 1.6-0.4 2.6-2 2.4-3.7q-0.8-4.7-1.3-9.5c-0.1-1.7-1.5-3-3.2-3-1.8 0-3.3-1.5-3.3-3.3v-8.5c0-1.8 1.5-3.3 3.3-3.3 1.7 0 3.1-1.3 3.2-3q0.5-4.8 1.3-9.5c0.2-1.7-0.8-3.3-2.4-3.7-1.7-0.5-2.8-2.3-2.3-4l2.2-8.3c0.5-1.8 2.3-2.8 4-2.3 1.7 0.4 3.3-0.5 3.9-2.1q1.7-4.5 3.7-8.8c0.7-1.6 0.1-3.4-1.3-4.3-1.6-0.9-2.1-2.9-1.2-4.4l4.3-7.4c0.9-1.6 2.9-2.1 4.4-1.2 1.5 0.8 3.4 0.4 4.3-1q2.8-3.9 5.9-7.6c1.1-1.3 1-3.2-0.2-4.4-1.3-1.3-1.3-3.4 0-4.6l6.1-6.1c1.2-1.3 3.3-1.3 4.6 0 1.2 1.2 3.1 1.3 4.4 0.2q3.7-3.1 7.6-5.9c1.4-0.9 1.8-2.8 1-4.3-0.9-1.5-0.4-3.5 1.2-4.4l7.4-4.3c1.5-0.9 3.5-0.4 4.4 1.2 0.9 1.4 2.7 2 4.3 1.3q4.3-2 8.8-3.7c1.6-0.6 2.5-2.3 2.1-3.9-0.5-1.7 0.5-3.5 2.3-4l8.3-2.2c1.7-0.5 3.5 0.5 4 2.3 0.4 1.6 2 2.6 3.7 2.3q4.7-0.8 9.5-1.2c1.7-0.1 3-1.5 3-3.2v-0.1c0-1.8 1.5-3.2 3.3-3.2h8.5c1.8 0 3.3 1.4 3.3 3.2v0.1c0 1.7 1.3 3.1 3 3.2q4.8 0.4 9.5 1.2c1.7 0.3 3.3-0.7 3.7-2.3 0.5-1.8 2.3-2.8 4-2.3l8.3 2.2c1.8 0.5 2.8 2.3 2.3 4-0.4 1.6 0.5 3.3 2.1 3.9q4.5 1.7 8.8 3.7c1.6 0.7 3.4 0.1 4.3-1.3 0.9-1.6 2.9-2.1 4.4-1.2l7.4 4.3c1.6 0.9 2.1 2.9 1.2 4.4-0.8 1.5-0.4 3.4 1 4.3q3.9 2.8 7.6 5.9c1.3 1.1 3.2 1 4.4-0.2 1.3-1.3 3.4-1.3 4.6 0l6.1 6.1c1.3 1.2 1.3 3.3 0 4.6-1.2 1.2-1.3 3.1-0.2 4.4q3.1 3.7 5.9 7.6c0.9 1.4 2.8 1.8 4.3 1 1.5-0.9 3.5-0.4 4.4 1.2l4.3 7.4c0.9 1.5 0.4 3.5-1.2 4.4-1.4 0.9-2 2.7-1.3 4.3q2 4.3 3.7 8.8c0.6 1.6 2.2 2.5 3.9 2.1 1.7-0.5 3.5 0.5 4 2.3l2.2 8.3c0.5 1.7-0.5 3.5-2.3 4-1.6 0.4-2.6 2-2.4 3.7q0.8 4.7 1.3 9.5c0.1 1.7 1.5 3 3.2 3 1.9 0 3.3 1.5 3.3 3.3v8.5c0 1.8-1.4 3.3-3.3 3.3z"/>
				<path id="&lt;Path&gt;" class="s1" d="m244.3 123.8c0 66.6-54 120.6-120.5 120.6-66.6 0-120.6-54-120.6-120.6 0-66.5 54-120.5 120.6-120.5 66.5 0 120.5 54 120.5 120.5z"/>
				<path id="&lt;Path&gt;" class="s0" d="m227.8 123.8c0 57.5-46.6 104.1-104 104.1-57.5 0-104.1-46.6-104.1-104.1 0-57.4 46.6-104 104.1-104 57.4 0 104 46.6 104 104z"/>
			</g>
			<path id="&lt;Path&gt;" class="s1" d="m200 123.8c0 42.1-34.2 76.3-76.2 76.3-42.1 0-76.3-34.2-76.3-76.3 0-42 34.2-76.2 76.3-76.2 42 0 76.2 34.2 76.2 76.2z"/>
			<path id="&lt;Path&gt;" class="s2" d="m247.1 119.5v8.5c0 1.8-1.4 3.3-3.2 3.3-1.8 0-3.1 1.3-3.3 3q-0.4 4.8-1.2 9.5c-0.3 1.7 0.7 3.3 2.3 3.7 1.8 0.5 2.8 2.3 2.3 4l-2.2 8.3c-0.4 1.8-2.2 2.8-4 2.3-1.6-0.4-3.3 0.5-3.9 2.1q-1.6 4.5-3.6 8.8c-0.8 1.6-0.2 3.4 1.3 4.3 1.5 0.9 2.1 2.9 1.2 4.4l-4.3 7.4c-0.9 1.6-2.9 2.1-4.5 1.2-1.5-0.8-3.3-0.4-4.3 1q-2.8 3.9-5.8 7.6c-1.1 1.3-1.1 3.2 0.1 4.4 1.3 1.3 1.3 3.4 0 4.6l-6 6.1c-1.3 1.3-3.4 1.3-4.6 0h-0.1c-1.2-1.2-3.1-1.3-4.4-0.2q-3.7 3.1-7.6 5.9c-1.3 0.9-1.8 2.8-0.9 4.3 0.9 1.5 0.3 3.5-1.2 4.4l-7.5 4.3c-1.5 0.9-3.5 0.4-4.4-1.2-0.9-1.4-2.7-2-4.2-1.3q-4.4 2-8.9 3.7c-1.6 0.6-2.5 2.3-2 3.9 0.4 1.7-0.6 3.5-2.3 4l-8.3 2.2c-1.8 0.5-3.6-0.5-4-2.3-0.5-1.6-2.1-2.6-3.8-2.3q-4.7 0.8-9.5 1.2c-1.7 0.1-3 1.5-3 3.2v0.1c0 1.8-1.4 3.2-3.2 3.2h-8.6c-1.8 0-3.3-1.4-3.3-3.2v-0.1c0-1.7-1.3-3.1-3-3.2q-4.8-0.4-9.5-1.2c-1.6-0.3-3.3 0.7-3.7 2.3-0.5 1.8-2.3 2.8-4 2.3l-8.3-2.2c-1.7-0.5-2.8-2.3-2.3-4 0.4-1.6-0.5-3.3-2.1-3.9q-4.5-1.7-8.8-3.7c-1.5-0.7-3.4-0.1-4.2 1.3-0.9 1.6-2.9 2.1-4.5 1.2l-7.4-4.3c-1.6-0.9-2.1-2.9-1.2-4.4 0.8-1.5 0.4-3.4-1-4.3q-3.9-2.8-7.5-5.9c-1.4-1.1-3.3-1-4.5 0.2-1.3 1.3-3.3 1.3-4.6 0l-6.1-6.1c-1.3-1.2-1.3-3.3 0-4.6 0.6-0.6 1-1.4 1-2.2 18.4 9.2 39 14.4 60.7 14.4 73.4 0 135-59.4 138.8-132 0.7 1.5 2.3 2.3 3.8 1.9 1.8-0.5 3.6 0.5 4 2.3l2.2 8.3c0.5 1.7-0.5 3.5-2.3 4-1.6 0.4-2.6 2-2.3 3.7q0.8 4.7 1.2 9.5c0.2 1.7 1.5 3 3.3 3 1.8 0 3.2 1.5 3.2 3.3z"/>
			<path id="&lt;Path&gt;" class="s3" d="m244.4 123.8c0 66.5-54 120.5-120.6 120.5-43.6 0-81.8-23.1-103-57.8 22.8 29.3 58.3 48.5 97.7 48.5 67.5 0 123.8-56.3 123.8-123.8q0-6.5-0.6-12.8c1.7 8.2 2.7 16.6 2.7 25.4z"/>
			<path id="&lt;Path&gt;" class="s2" d="m20.1 115.4c4.3-53.5 49.1-95.7 103.7-95.7 40.9 0 76.2 23.6 93.2 58-20.1-28.2-53.1-46.8-89.7-46.8-51.3 0-95.3 36.5-107.2 84.5z"/>
			<g id="&lt;Group&gt;" style="opacity: .3;mix-blend-mode: overlay">
				<path id="&lt;Path&gt;" class="s4" d="m57 126.8c-1.7 0-3-1.4-3-3 0-38.5 31.3-69.9 69.8-69.9 1.6 0 3 1.4 3 3 0 1.7-1.4 3-3 3-35.2 0-63.8 28.7-63.8 63.9 0 1.6-1.4 3-3 3z"/>
			</g>
			<g id="&lt;Group&gt;" style="opacity: .3;mix-blend-mode: overlay">
				<path id="&lt;Path&gt;" class="s4" d="m9.1 126.8c-1.7 0-3-1.4-3-3 0-64.9 52.8-117.7 117.7-117.7 1.6 0 3 1.3 3 3 0 1.6-1.4 3-3 3-61.6 0-111.7 50.1-111.7 111.7 0 1.6-1.3 3-3 3z"/>
			</g>
			<path id="&lt;Path&gt;" class="s3" d="m200 123.8c0 42-34.1 76.2-76.2 76.2-26.8 0-50.3-13.9-63.9-34.8 14.4 13.4 33.6 21.7 54.5 21.7 43.8 0 80.4-36.5 80.4-80.4 0-4.5-0.4-8.8-1.1-13.1 4 9.3 6.3 19.6 6.3 30.4z"/>
			<text id="D
" style="transform: matrix(2,0,0,2,82.153,172.043)" >
				<tspan x="0" y="0" class="t5">D
</tspan>
			</text>
		</g>
	</g>
</svg>